<mxfile host="app.diagrams.net" modified="2023-04-16T10:49:26.239Z" agent="Mozilla/5.0 (Windows NT 10.0; Win64; x64) AppleWebKit/537.36 (KHTML, like Gecko) Chrome/112.0.0.0 Safari/537.36" etag="Faf0RuG6TK8dxS-yxj-m" version="21.1.8" type="device" pages="3">
  <diagram id="C5RBs43oDa-KdzZeNtuy" name="diagramme de class">
    <mxGraphModel dx="2585" dy="1095" grid="1" gridSize="10" guides="1" tooltips="1" connect="1" arrows="1" fold="1" page="1" pageScale="1" pageWidth="827" pageHeight="1169" math="0" shadow="0">
      <root>
        <mxCell id="WIyWlLk6GJQsqaUBKTNV-0" />
        <mxCell id="WIyWlLk6GJQsqaUBKTNV-1" parent="WIyWlLk6GJQsqaUBKTNV-0" />
        <mxCell id="zkfFHV4jXpPFQw0GAbJ--0" value="Administrator" style="swimlane;fontStyle=2;align=center;verticalAlign=top;childLayout=stackLayout;horizontal=1;startSize=26;horizontalStack=0;resizeParent=1;resizeLast=0;collapsible=1;marginBottom=0;rounded=0;shadow=0;strokeWidth=1;" parent="WIyWlLk6GJQsqaUBKTNV-1" vertex="1">
          <mxGeometry x="598" y="80" width="160" height="196" as="geometry">
            <mxRectangle x="230" y="140" width="160" height="26" as="alternateBounds" />
          </mxGeometry>
        </mxCell>
        <mxCell id="1eAlw46hZH1twt86P3g5-5" value="- Id" style="text;align=left;verticalAlign=top;spacingLeft=4;spacingRight=4;overflow=hidden;rotatable=0;points=[[0,0.5],[1,0.5]];portConstraint=eastwest;" parent="zkfFHV4jXpPFQw0GAbJ--0" vertex="1">
          <mxGeometry y="26" width="160" height="26" as="geometry" />
        </mxCell>
        <mxCell id="1eAlw46hZH1twt86P3g5-6" value="- Email" style="text;align=left;verticalAlign=top;spacingLeft=4;spacingRight=4;overflow=hidden;rotatable=0;points=[[0,0.5],[1,0.5]];portConstraint=eastwest;" parent="zkfFHV4jXpPFQw0GAbJ--0" vertex="1">
          <mxGeometry y="52" width="160" height="26" as="geometry" />
        </mxCell>
        <mxCell id="1eAlw46hZH1twt86P3g5-7" value="- Password" style="text;align=left;verticalAlign=top;spacingLeft=4;spacingRight=4;overflow=hidden;rotatable=0;points=[[0,0.5],[1,0.5]];portConstraint=eastwest;" parent="zkfFHV4jXpPFQw0GAbJ--0" vertex="1">
          <mxGeometry y="78" width="160" height="26" as="geometry" />
        </mxCell>
        <mxCell id="zkfFHV4jXpPFQw0GAbJ--4" value="" style="line;html=1;strokeWidth=1;align=left;verticalAlign=middle;spacingTop=-1;spacingLeft=3;spacingRight=3;rotatable=0;labelPosition=right;points=[];portConstraint=eastwest;" parent="zkfFHV4jXpPFQw0GAbJ--0" vertex="1">
          <mxGeometry y="104" width="160" height="14" as="geometry" />
        </mxCell>
        <mxCell id="ZxDDOGGBknVu24htJJXj-1" value="+ Crud-Nannies ()" style="text;align=left;verticalAlign=top;spacingLeft=4;spacingRight=4;overflow=hidden;rotatable=0;points=[[0,0.5],[1,0.5]];portConstraint=eastwest;" parent="zkfFHV4jXpPFQw0GAbJ--0" vertex="1">
          <mxGeometry y="118" width="160" height="26" as="geometry" />
        </mxCell>
        <mxCell id="_kBoO3j8rJtGv-Ts3hlD-14" value="+ Crud-Parents ()" style="text;align=left;verticalAlign=top;spacingLeft=4;spacingRight=4;overflow=hidden;rotatable=0;points=[[0,0.5],[1,0.5]];portConstraint=eastwest;" parent="zkfFHV4jXpPFQw0GAbJ--0" vertex="1">
          <mxGeometry y="144" width="160" height="26" as="geometry" />
        </mxCell>
        <mxCell id="1GwK2E4fDMmyMxDQu9cP-0" value="+ Crud-Students ()" style="text;align=left;verticalAlign=top;spacingLeft=4;spacingRight=4;overflow=hidden;rotatable=0;points=[[0,0.5],[1,0.5]];portConstraint=eastwest;" vertex="1" parent="zkfFHV4jXpPFQw0GAbJ--0">
          <mxGeometry y="170" width="160" height="26" as="geometry" />
        </mxCell>
        <mxCell id="bhaJdEkTRUzEc6cF1CEX-28" style="edgeStyle=orthogonalEdgeStyle;rounded=0;orthogonalLoop=1;jettySize=auto;html=1;entryX=1.004;entryY=0.219;entryDx=0;entryDy=0;entryPerimeter=0;" parent="WIyWlLk6GJQsqaUBKTNV-1" source="ZxDDOGGBknVu24htJJXj-2" target="ZxDDOGGBknVu24htJJXj-31" edge="1">
          <mxGeometry relative="1" as="geometry">
            <mxPoint x="300" y="561" as="targetPoint" />
          </mxGeometry>
        </mxCell>
        <mxCell id="ZxDDOGGBknVu24htJJXj-2" value="Parent" style="swimlane;fontStyle=2;align=center;verticalAlign=top;childLayout=stackLayout;horizontal=1;startSize=26;horizontalStack=0;resizeParent=1;resizeLast=0;collapsible=1;marginBottom=0;rounded=0;shadow=0;strokeWidth=1;" parent="WIyWlLk6GJQsqaUBKTNV-1" vertex="1">
          <mxGeometry x="598" y="440" width="160" height="242" as="geometry">
            <mxRectangle x="230" y="140" width="160" height="26" as="alternateBounds" />
          </mxGeometry>
        </mxCell>
        <mxCell id="1eAlw46hZH1twt86P3g5-18" value="- Id" style="text;align=left;verticalAlign=top;spacingLeft=4;spacingRight=4;overflow=hidden;rotatable=0;points=[[0,0.5],[1,0.5]];portConstraint=eastwest;" parent="ZxDDOGGBknVu24htJJXj-2" vertex="1">
          <mxGeometry y="26" width="160" height="26" as="geometry" />
        </mxCell>
        <mxCell id="ZxDDOGGBknVu24htJJXj-3" value="- Name" style="text;align=left;verticalAlign=top;spacingLeft=4;spacingRight=4;overflow=hidden;rotatable=0;points=[[0,0.5],[1,0.5]];portConstraint=eastwest;" parent="ZxDDOGGBknVu24htJJXj-2" vertex="1">
          <mxGeometry y="52" width="160" height="26" as="geometry" />
        </mxCell>
        <mxCell id="1eAlw46hZH1twt86P3g5-19" value="- Email" style="text;align=left;verticalAlign=top;spacingLeft=4;spacingRight=4;overflow=hidden;rotatable=0;points=[[0,0.5],[1,0.5]];portConstraint=eastwest;" parent="ZxDDOGGBknVu24htJJXj-2" vertex="1">
          <mxGeometry y="78" width="160" height="26" as="geometry" />
        </mxCell>
        <mxCell id="1eAlw46hZH1twt86P3g5-20" value="- Password" style="text;align=left;verticalAlign=top;spacingLeft=4;spacingRight=4;overflow=hidden;rotatable=0;points=[[0,0.5],[1,0.5]];portConstraint=eastwest;" parent="ZxDDOGGBknVu24htJJXj-2" vertex="1">
          <mxGeometry y="104" width="160" height="26" as="geometry" />
        </mxCell>
        <mxCell id="ZxDDOGGBknVu24htJJXj-16" value="- Phone" style="text;align=left;verticalAlign=top;spacingLeft=4;spacingRight=4;overflow=hidden;rotatable=0;points=[[0,0.5],[1,0.5]];portConstraint=eastwest;rounded=0;shadow=0;html=0;" parent="ZxDDOGGBknVu24htJJXj-2" vertex="1">
          <mxGeometry y="130" width="160" height="26" as="geometry" />
        </mxCell>
        <mxCell id="bhaJdEkTRUzEc6cF1CEX-27" value="- Child" style="text;align=left;verticalAlign=top;spacingLeft=4;spacingRight=4;overflow=hidden;rotatable=0;points=[[0,0.5],[1,0.5]];portConstraint=eastwest;rounded=0;shadow=0;html=0;" parent="ZxDDOGGBknVu24htJJXj-2" vertex="1">
          <mxGeometry y="156" width="160" height="26" as="geometry" />
        </mxCell>
        <mxCell id="ZxDDOGGBknVu24htJJXj-5" value="" style="line;html=1;strokeWidth=1;align=left;verticalAlign=middle;spacingTop=-1;spacingLeft=3;spacingRight=3;rotatable=0;labelPosition=right;points=[];portConstraint=eastwest;" parent="ZxDDOGGBknVu24htJJXj-2" vertex="1">
          <mxGeometry y="182" width="160" height="8" as="geometry" />
        </mxCell>
        <mxCell id="ZxDDOGGBknVu24htJJXj-17" value="+ Authentification ()" style="text;align=left;verticalAlign=top;spacingLeft=4;spacingRight=4;overflow=hidden;rotatable=0;points=[[0,0.5],[1,0.5]];portConstraint=eastwest;" parent="ZxDDOGGBknVu24htJJXj-2" vertex="1">
          <mxGeometry y="190" width="160" height="26" as="geometry" />
        </mxCell>
        <mxCell id="1eAlw46hZH1twt86P3g5-0" value="+ Read-Childs ()" style="text;align=left;verticalAlign=top;spacingLeft=4;spacingRight=4;overflow=hidden;rotatable=0;points=[[0,0.5],[1,0.5]];portConstraint=eastwest;" parent="ZxDDOGGBknVu24htJJXj-2" vertex="1">
          <mxGeometry y="216" width="160" height="26" as="geometry" />
        </mxCell>
        <mxCell id="bhaJdEkTRUzEc6cF1CEX-26" style="edgeStyle=orthogonalEdgeStyle;rounded=0;orthogonalLoop=1;jettySize=auto;html=1;entryX=0.5;entryY=0;entryDx=0;entryDy=0;" parent="WIyWlLk6GJQsqaUBKTNV-1" source="ZxDDOGGBknVu24htJJXj-19" target="ZxDDOGGBknVu24htJJXj-29" edge="1">
          <mxGeometry relative="1" as="geometry" />
        </mxCell>
        <mxCell id="ZxDDOGGBknVu24htJJXj-19" value="Nanny" style="swimlane;fontStyle=2;align=center;verticalAlign=top;childLayout=stackLayout;horizontal=1;startSize=26;horizontalStack=0;resizeParent=1;resizeLast=0;collapsible=1;marginBottom=0;rounded=0;shadow=0;strokeWidth=1;" parent="WIyWlLk6GJQsqaUBKTNV-1" vertex="1">
          <mxGeometry x="120" y="120" width="160" height="216" as="geometry">
            <mxRectangle x="230" y="140" width="160" height="26" as="alternateBounds" />
          </mxGeometry>
        </mxCell>
        <mxCell id="1eAlw46hZH1twt86P3g5-8" value="- Id" style="text;align=left;verticalAlign=top;spacingLeft=4;spacingRight=4;overflow=hidden;rotatable=0;points=[[0,0.5],[1,0.5]];portConstraint=eastwest;" parent="ZxDDOGGBknVu24htJJXj-19" vertex="1">
          <mxGeometry y="26" width="160" height="26" as="geometry" />
        </mxCell>
        <mxCell id="ZxDDOGGBknVu24htJJXj-21" value="- Name" style="text;align=left;verticalAlign=top;spacingLeft=4;spacingRight=4;overflow=hidden;rotatable=0;points=[[0,0.5],[1,0.5]];portConstraint=eastwest;" parent="ZxDDOGGBknVu24htJJXj-19" vertex="1">
          <mxGeometry y="52" width="160" height="26" as="geometry" />
        </mxCell>
        <mxCell id="1eAlw46hZH1twt86P3g5-9" value="- Email" style="text;align=left;verticalAlign=top;spacingLeft=4;spacingRight=4;overflow=hidden;rotatable=0;points=[[0,0.5],[1,0.5]];portConstraint=eastwest;" parent="ZxDDOGGBknVu24htJJXj-19" vertex="1">
          <mxGeometry y="78" width="160" height="26" as="geometry" />
        </mxCell>
        <mxCell id="1GwK2E4fDMmyMxDQu9cP-1" value="- Phone" style="text;align=left;verticalAlign=top;spacingLeft=4;spacingRight=4;overflow=hidden;rotatable=0;points=[[0,0.5],[1,0.5]];portConstraint=eastwest;" vertex="1" parent="ZxDDOGGBknVu24htJJXj-19">
          <mxGeometry y="104" width="160" height="26" as="geometry" />
        </mxCell>
        <mxCell id="1eAlw46hZH1twt86P3g5-10" value="- Password" style="text;align=left;verticalAlign=top;spacingLeft=4;spacingRight=4;overflow=hidden;rotatable=0;points=[[0,0.5],[1,0.5]];portConstraint=eastwest;" parent="ZxDDOGGBknVu24htJJXj-19" vertex="1">
          <mxGeometry y="130" width="160" height="26" as="geometry" />
        </mxCell>
        <mxCell id="ZxDDOGGBknVu24htJJXj-25" value="" style="line;html=1;strokeWidth=1;align=left;verticalAlign=middle;spacingTop=-1;spacingLeft=3;spacingRight=3;rotatable=0;labelPosition=right;points=[];portConstraint=eastwest;" parent="ZxDDOGGBknVu24htJJXj-19" vertex="1">
          <mxGeometry y="156" width="160" height="8" as="geometry" />
        </mxCell>
        <mxCell id="YtYmT2gtb_SeCyjBEEM6-0" value="+ Crud-Activities ()" style="text;align=left;verticalAlign=top;spacingLeft=4;spacingRight=4;overflow=hidden;rotatable=0;points=[[0,0.5],[1,0.5]];portConstraint=eastwest;" parent="ZxDDOGGBknVu24htJJXj-19" vertex="1">
          <mxGeometry y="164" width="160" height="26" as="geometry" />
        </mxCell>
        <mxCell id="1GwK2E4fDMmyMxDQu9cP-2" value="+ Comment-Childs ()" style="text;align=left;verticalAlign=top;spacingLeft=4;spacingRight=4;overflow=hidden;rotatable=0;points=[[0,0.5],[1,0.5]];portConstraint=eastwest;" vertex="1" parent="ZxDDOGGBknVu24htJJXj-19">
          <mxGeometry y="190" width="160" height="26" as="geometry" />
        </mxCell>
        <mxCell id="ZxDDOGGBknVu24htJJXj-29" value="Children" style="swimlane;fontStyle=2;align=center;verticalAlign=top;childLayout=stackLayout;horizontal=1;startSize=26;horizontalStack=0;resizeParent=1;resizeLast=0;collapsible=1;marginBottom=0;rounded=0;shadow=0;strokeWidth=1;" parent="WIyWlLk6GJQsqaUBKTNV-1" vertex="1">
          <mxGeometry x="120" y="475" width="160" height="235" as="geometry">
            <mxRectangle x="230" y="140" width="160" height="26" as="alternateBounds" />
          </mxGeometry>
        </mxCell>
        <mxCell id="ZxDDOGGBknVu24htJJXj-95" value="- Id" style="text;align=left;verticalAlign=top;spacingLeft=4;spacingRight=4;overflow=hidden;rotatable=0;points=[[0,0.5],[1,0.5]];portConstraint=eastwest;rounded=0;shadow=0;html=0;" parent="ZxDDOGGBknVu24htJJXj-29" vertex="1">
          <mxGeometry y="26" width="160" height="26" as="geometry" />
        </mxCell>
        <mxCell id="1GwK2E4fDMmyMxDQu9cP-3" value="- Name" style="text;align=left;verticalAlign=top;spacingLeft=4;spacingRight=4;overflow=hidden;rotatable=0;points=[[0,0.5],[1,0.5]];portConstraint=eastwest;rounded=0;shadow=0;html=0;" vertex="1" parent="ZxDDOGGBknVu24htJJXj-29">
          <mxGeometry y="52" width="160" height="26" as="geometry" />
        </mxCell>
        <mxCell id="1GwK2E4fDMmyMxDQu9cP-4" value="- Age" style="text;align=left;verticalAlign=top;spacingLeft=4;spacingRight=4;overflow=hidden;rotatable=0;points=[[0,0.5],[1,0.5]];portConstraint=eastwest;rounded=0;shadow=0;html=0;" vertex="1" parent="ZxDDOGGBknVu24htJJXj-29">
          <mxGeometry y="78" width="160" height="26" as="geometry" />
        </mxCell>
        <mxCell id="1GwK2E4fDMmyMxDQu9cP-5" value="- Image" style="text;align=left;verticalAlign=top;spacingLeft=4;spacingRight=4;overflow=hidden;rotatable=0;points=[[0,0.5],[1,0.5]];portConstraint=eastwest;rounded=0;shadow=0;html=0;" vertex="1" parent="ZxDDOGGBknVu24htJJXj-29">
          <mxGeometry y="104" width="160" height="26" as="geometry" />
        </mxCell>
        <mxCell id="bhaJdEkTRUzEc6cF1CEX-5" value="- Class" style="text;align=left;verticalAlign=top;spacingLeft=4;spacingRight=4;overflow=hidden;rotatable=0;points=[[0,0.5],[1,0.5]];portConstraint=eastwest;rounded=0;shadow=0;html=0;" parent="ZxDDOGGBknVu24htJJXj-29" vertex="1">
          <mxGeometry y="130" width="160" height="26" as="geometry" />
        </mxCell>
        <mxCell id="ZxDDOGGBknVu24htJJXj-31" value="- Nanny" style="text;align=left;verticalAlign=top;spacingLeft=4;spacingRight=4;overflow=hidden;rotatable=0;points=[[0,0.5],[1,0.5]];portConstraint=eastwest;" parent="ZxDDOGGBknVu24htJJXj-29" vertex="1">
          <mxGeometry y="156" width="160" height="26" as="geometry" />
        </mxCell>
        <mxCell id="1GwK2E4fDMmyMxDQu9cP-6" value="- Sibling" style="text;align=left;verticalAlign=top;spacingLeft=4;spacingRight=4;overflow=hidden;rotatable=0;points=[[0,0.5],[1,0.5]];portConstraint=eastwest;" vertex="1" parent="ZxDDOGGBknVu24htJJXj-29">
          <mxGeometry y="182" width="160" height="26" as="geometry" />
        </mxCell>
        <mxCell id="ZxDDOGGBknVu24htJJXj-35" value="" style="line;html=1;strokeWidth=1;align=left;verticalAlign=middle;spacingTop=-1;spacingLeft=3;spacingRight=3;rotatable=0;labelPosition=right;points=[];portConstraint=eastwest;" parent="ZxDDOGGBknVu24htJJXj-29" vertex="1">
          <mxGeometry y="208" width="160" height="12" as="geometry" />
        </mxCell>
        <mxCell id="bhaJdEkTRUzEc6cF1CEX-25" style="edgeStyle=orthogonalEdgeStyle;rounded=0;orthogonalLoop=1;jettySize=auto;html=1;entryX=1.009;entryY=0.111;entryDx=0;entryDy=0;entryPerimeter=0;" parent="WIyWlLk6GJQsqaUBKTNV-1" source="_kBoO3j8rJtGv-Ts3hlD-0" target="1eAlw46hZH1twt86P3g5-9" edge="1">
          <mxGeometry relative="1" as="geometry" />
        </mxCell>
        <mxCell id="_kBoO3j8rJtGv-Ts3hlD-0" value="Class" style="swimlane;fontStyle=2;align=center;verticalAlign=top;childLayout=stackLayout;horizontal=1;startSize=26;horizontalStack=0;resizeParent=1;resizeLast=0;collapsible=1;marginBottom=0;rounded=0;shadow=0;strokeWidth=1;" parent="WIyWlLk6GJQsqaUBKTNV-1" vertex="1">
          <mxGeometry x="360" y="280" width="160" height="160" as="geometry">
            <mxRectangle x="230" y="140" width="160" height="26" as="alternateBounds" />
          </mxGeometry>
        </mxCell>
        <mxCell id="1eAlw46hZH1twt86P3g5-11" value="- Id" style="text;align=left;verticalAlign=top;spacingLeft=4;spacingRight=4;overflow=hidden;rotatable=0;points=[[0,0.5],[1,0.5]];portConstraint=eastwest;" parent="_kBoO3j8rJtGv-Ts3hlD-0" vertex="1">
          <mxGeometry y="26" width="160" height="26" as="geometry" />
        </mxCell>
        <mxCell id="bhaJdEkTRUzEc6cF1CEX-6" value="- Name" style="text;align=left;verticalAlign=top;spacingLeft=4;spacingRight=4;overflow=hidden;rotatable=0;points=[[0,0.5],[1,0.5]];portConstraint=eastwest;" parent="_kBoO3j8rJtGv-Ts3hlD-0" vertex="1">
          <mxGeometry y="52" width="160" height="26" as="geometry" />
        </mxCell>
        <mxCell id="1eAlw46hZH1twt86P3g5-16" value="- Nanny" style="text;align=left;verticalAlign=top;spacingLeft=4;spacingRight=4;overflow=hidden;rotatable=0;points=[[0,0.5],[1,0.5]];portConstraint=eastwest;" parent="_kBoO3j8rJtGv-Ts3hlD-0" vertex="1">
          <mxGeometry y="78" width="160" height="26" as="geometry" />
        </mxCell>
        <mxCell id="1eAlw46hZH1twt86P3g5-13" value="- Activity" style="text;align=left;verticalAlign=top;spacingLeft=4;spacingRight=4;overflow=hidden;rotatable=0;points=[[0,0.5],[1,0.5]];portConstraint=eastwest;" parent="_kBoO3j8rJtGv-Ts3hlD-0" vertex="1">
          <mxGeometry y="104" width="160" height="26" as="geometry" />
        </mxCell>
        <mxCell id="_kBoO3j8rJtGv-Ts3hlD-7" value="" style="line;html=1;strokeWidth=1;align=left;verticalAlign=middle;spacingTop=-1;spacingLeft=3;spacingRight=3;rotatable=0;labelPosition=right;points=[];portConstraint=eastwest;" parent="_kBoO3j8rJtGv-Ts3hlD-0" vertex="1">
          <mxGeometry y="130" width="160" height="14" as="geometry" />
        </mxCell>
        <mxCell id="bhaJdEkTRUzEc6cF1CEX-29" style="edgeStyle=orthogonalEdgeStyle;rounded=0;orthogonalLoop=1;jettySize=auto;html=1;entryX=0.5;entryY=1;entryDx=0;entryDy=0;" parent="WIyWlLk6GJQsqaUBKTNV-1" source="bhaJdEkTRUzEc6cF1CEX-8" target="ZxDDOGGBknVu24htJJXj-29" edge="1">
          <mxGeometry relative="1" as="geometry">
            <mxPoint x="280" y="670" as="targetPoint" />
          </mxGeometry>
        </mxCell>
        <mxCell id="bhaJdEkTRUzEc6cF1CEX-8" value="Status" style="swimlane;fontStyle=2;align=center;verticalAlign=top;childLayout=stackLayout;horizontal=1;startSize=26;horizontalStack=0;resizeParent=1;resizeLast=0;collapsible=1;marginBottom=0;rounded=0;shadow=0;strokeWidth=1;" parent="WIyWlLk6GJQsqaUBKTNV-1" vertex="1">
          <mxGeometry x="360" y="720" width="160" height="170" as="geometry">
            <mxRectangle x="230" y="140" width="160" height="26" as="alternateBounds" />
          </mxGeometry>
        </mxCell>
        <mxCell id="bhaJdEkTRUzEc6cF1CEX-9" value="- Id" style="text;align=left;verticalAlign=top;spacingLeft=4;spacingRight=4;overflow=hidden;rotatable=0;points=[[0,0.5],[1,0.5]];portConstraint=eastwest;rounded=0;shadow=0;html=0;" parent="bhaJdEkTRUzEc6cF1CEX-8" vertex="1">
          <mxGeometry y="26" width="160" height="26" as="geometry" />
        </mxCell>
        <mxCell id="bhaJdEkTRUzEc6cF1CEX-10" value="- Student" style="text;align=left;verticalAlign=top;spacingLeft=4;spacingRight=4;overflow=hidden;rotatable=0;points=[[0,0.5],[1,0.5]];portConstraint=eastwest;rounded=0;shadow=0;html=0;" parent="bhaJdEkTRUzEc6cF1CEX-8" vertex="1">
          <mxGeometry y="52" width="160" height="26" as="geometry" />
        </mxCell>
        <mxCell id="bhaJdEkTRUzEc6cF1CEX-17" value="- Nanny" style="text;align=left;verticalAlign=top;spacingLeft=4;spacingRight=4;overflow=hidden;rotatable=0;points=[[0,0.5],[1,0.5]];portConstraint=eastwest;" parent="bhaJdEkTRUzEc6cF1CEX-8" vertex="1">
          <mxGeometry y="78" width="160" height="26" as="geometry" />
        </mxCell>
        <mxCell id="bhaJdEkTRUzEc6cF1CEX-12" value="- Comment" style="text;align=left;verticalAlign=top;spacingLeft=4;spacingRight=4;overflow=hidden;rotatable=0;points=[[0,0.5],[1,0.5]];portConstraint=eastwest;" parent="bhaJdEkTRUzEc6cF1CEX-8" vertex="1">
          <mxGeometry y="104" width="160" height="26" as="geometry" />
        </mxCell>
        <mxCell id="bhaJdEkTRUzEc6cF1CEX-15" value="" style="line;html=1;strokeWidth=1;align=left;verticalAlign=middle;spacingTop=-1;spacingLeft=3;spacingRight=3;rotatable=0;labelPosition=right;points=[];portConstraint=eastwest;" parent="bhaJdEkTRUzEc6cF1CEX-8" vertex="1">
          <mxGeometry y="130" width="160" height="32" as="geometry" />
        </mxCell>
        <mxCell id="bhaJdEkTRUzEc6cF1CEX-20" style="edgeStyle=orthogonalEdgeStyle;rounded=0;orthogonalLoop=1;jettySize=auto;html=1;entryX=0;entryY=0.5;entryDx=0;entryDy=0;" parent="WIyWlLk6GJQsqaUBKTNV-1" target="1eAlw46hZH1twt86P3g5-9" edge="1">
          <mxGeometry relative="1" as="geometry">
            <Array as="points">
              <mxPoint x="40" y="837" />
              <mxPoint x="40" y="211" />
            </Array>
            <mxPoint x="360" y="837.0666666666666" as="sourcePoint" />
          </mxGeometry>
        </mxCell>
        <mxCell id="TkVJnwQ9H-H6Is3i5BWD-0" style="edgeStyle=orthogonalEdgeStyle;rounded=0;orthogonalLoop=1;jettySize=auto;html=1;entryX=0.023;entryY=0.077;entryDx=0;entryDy=0;entryPerimeter=0;" parent="WIyWlLk6GJQsqaUBKTNV-1" source="bhaJdEkTRUzEc6cF1CEX-5" target="1eAlw46hZH1twt86P3g5-16" edge="1">
          <mxGeometry relative="1" as="geometry" />
        </mxCell>
      </root>
    </mxGraphModel>
  </diagram>
  <diagram id="SBH2XMTbyzOP1muIHeXq" name="diagram de cas d&#39;utilisation">
    <mxGraphModel dx="1880" dy="796" grid="1" gridSize="10" guides="1" tooltips="1" connect="1" arrows="1" fold="1" page="1" pageScale="1" pageWidth="827" pageHeight="1169" math="0" shadow="0">
      <root>
        <mxCell id="0" />
        <mxCell id="1" parent="0" />
        <mxCell id="VMAUItCWtUgX9USHc8VA-6" value="" style="rounded=0;whiteSpace=wrap;html=1;" parent="1" vertex="1">
          <mxGeometry x="210" y="264" width="510" height="540" as="geometry" />
        </mxCell>
        <mxCell id="EIso7QuBOm43zt30TAGB-16" style="edgeStyle=none;rounded=0;orthogonalLoop=1;jettySize=auto;html=1;entryX=0;entryY=0.5;entryDx=0;entryDy=0;" parent="1" source="VMAUItCWtUgX9USHc8VA-1" target="EIso7QuBOm43zt30TAGB-14" edge="1">
          <mxGeometry relative="1" as="geometry" />
        </mxCell>
        <mxCell id="VMAUItCWtUgX9USHc8VA-1" value="Parent" style="shape=umlActor;verticalLabelPosition=bottom;verticalAlign=top;html=1;" parent="1" vertex="1">
          <mxGeometry x="118" y="692" width="30" height="60" as="geometry" />
        </mxCell>
        <mxCell id="EIso7QuBOm43zt30TAGB-11" style="edgeStyle=none;rounded=0;orthogonalLoop=1;jettySize=auto;html=1;entryX=0;entryY=0.5;entryDx=0;entryDy=0;" parent="1" source="VMAUItCWtUgX9USHc8VA-3" target="EIso7QuBOm43zt30TAGB-6" edge="1">
          <mxGeometry relative="1" as="geometry" />
        </mxCell>
        <mxCell id="EIso7QuBOm43zt30TAGB-12" style="edgeStyle=none;rounded=0;orthogonalLoop=1;jettySize=auto;html=1;entryX=0;entryY=0.5;entryDx=0;entryDy=0;" parent="1" source="VMAUItCWtUgX9USHc8VA-3" target="EIso7QuBOm43zt30TAGB-7" edge="1">
          <mxGeometry relative="1" as="geometry" />
        </mxCell>
        <mxCell id="VMAUItCWtUgX9USHc8VA-3" value="Nanny" style="shape=umlActor;verticalLabelPosition=bottom;verticalAlign=top;html=1;" parent="1" vertex="1">
          <mxGeometry x="118" y="559" width="30" height="60" as="geometry" />
        </mxCell>
        <mxCell id="EIso7QuBOm43zt30TAGB-19" style="edgeStyle=none;rounded=0;orthogonalLoop=1;jettySize=auto;html=1;" parent="1" edge="1">
          <mxGeometry relative="1" as="geometry">
            <mxPoint x="158" y="208.63919999070004" as="sourcePoint" />
          </mxGeometry>
        </mxCell>
        <mxCell id="EIso7QuBOm43zt30TAGB-20" style="edgeStyle=none;rounded=0;orthogonalLoop=1;jettySize=auto;html=1;entryX=0;entryY=0.5;entryDx=0;entryDy=0;" parent="1" edge="1">
          <mxGeometry relative="1" as="geometry">
            <mxPoint x="158" y="212.27848101265818" as="sourcePoint" />
          </mxGeometry>
        </mxCell>
        <mxCell id="EIso7QuBOm43zt30TAGB-6" value="crud-activities" style="ellipse;whiteSpace=wrap;html=1;" parent="1" vertex="1">
          <mxGeometry x="334" y="535" width="80" height="50" as="geometry" />
        </mxCell>
        <mxCell id="EIso7QuBOm43zt30TAGB-7" value="crud-childs" style="ellipse;whiteSpace=wrap;html=1;" parent="1" vertex="1">
          <mxGeometry x="334" y="600" width="80" height="50" as="geometry" />
        </mxCell>
        <mxCell id="EIso7QuBOm43zt30TAGB-13" value="login" style="ellipse;whiteSpace=wrap;html=1;" parent="1" vertex="1">
          <mxGeometry x="610" y="697" width="80" height="50" as="geometry" />
        </mxCell>
        <mxCell id="seTzrFUvo9Vho5NLYhx8-6" style="edgeStyle=none;rounded=0;orthogonalLoop=1;jettySize=auto;html=1;entryX=0;entryY=0.5;entryDx=0;entryDy=0;" parent="1" source="EIso7QuBOm43zt30TAGB-14" target="EIso7QuBOm43zt30TAGB-13" edge="1">
          <mxGeometry relative="1" as="geometry" />
        </mxCell>
        <mxCell id="seTzrFUvo9Vho5NLYhx8-7" value="&amp;lt;&amp;lt;includes&amp;gt;&amp;gt;" style="edgeLabel;html=1;align=center;verticalAlign=middle;resizable=0;points=[];" parent="seTzrFUvo9Vho5NLYhx8-6" vertex="1" connectable="0">
          <mxGeometry x="-0.1506" y="1" relative="1" as="geometry">
            <mxPoint as="offset" />
          </mxGeometry>
        </mxCell>
        <mxCell id="EIso7QuBOm43zt30TAGB-14" value="read-childs" style="ellipse;whiteSpace=wrap;html=1;" parent="1" vertex="1">
          <mxGeometry x="334" y="697" width="80" height="50" as="geometry" />
        </mxCell>
        <mxCell id="EIso7QuBOm43zt30TAGB-24" style="edgeStyle=none;rounded=0;orthogonalLoop=1;jettySize=auto;html=1;entryX=0;entryY=0.5;entryDx=0;entryDy=0;" parent="1" source="EIso7QuBOm43zt30TAGB-21" target="EIso7QuBOm43zt30TAGB-22" edge="1">
          <mxGeometry relative="1" as="geometry" />
        </mxCell>
        <mxCell id="EIso7QuBOm43zt30TAGB-25" style="edgeStyle=none;rounded=0;orthogonalLoop=1;jettySize=auto;html=1;entryX=0;entryY=0.5;entryDx=0;entryDy=0;" parent="1" source="EIso7QuBOm43zt30TAGB-21" target="EIso7QuBOm43zt30TAGB-23" edge="1">
          <mxGeometry relative="1" as="geometry" />
        </mxCell>
        <mxCell id="RVFzBMsblsfGYS1RLQrb-2" style="rounded=0;orthogonalLoop=1;jettySize=auto;html=1;entryX=0;entryY=0.5;entryDx=0;entryDy=0;" edge="1" parent="1" source="EIso7QuBOm43zt30TAGB-21" target="RVFzBMsblsfGYS1RLQrb-1">
          <mxGeometry relative="1" as="geometry" />
        </mxCell>
        <mxCell id="EIso7QuBOm43zt30TAGB-21" value="Director" style="shape=umlActor;verticalLabelPosition=bottom;verticalAlign=top;html=1;" parent="1" vertex="1">
          <mxGeometry x="118" y="344" width="30" height="60" as="geometry" />
        </mxCell>
        <mxCell id="1comxYoYeF5f1OaVWV9h-2" style="rounded=0;orthogonalLoop=1;jettySize=auto;html=1;entryX=0;entryY=0.5;entryDx=0;entryDy=0;" parent="1" source="EIso7QuBOm43zt30TAGB-22" target="1comxYoYeF5f1OaVWV9h-1" edge="1">
          <mxGeometry relative="1" as="geometry" />
        </mxCell>
        <mxCell id="1comxYoYeF5f1OaVWV9h-5" value="&amp;lt;&amp;lt;includes&amp;gt;&amp;gt;" style="edgeLabel;html=1;align=center;verticalAlign=middle;resizable=0;points=[];" parent="1comxYoYeF5f1OaVWV9h-2" vertex="1" connectable="0">
          <mxGeometry x="-0.3548" y="-2" relative="1" as="geometry">
            <mxPoint x="23" y="2" as="offset" />
          </mxGeometry>
        </mxCell>
        <mxCell id="EIso7QuBOm43zt30TAGB-22" value="crud-nannies-accounts" style="ellipse;whiteSpace=wrap;html=1;" parent="1" vertex="1">
          <mxGeometry x="320" y="280" width="80" height="50" as="geometry" />
        </mxCell>
        <mxCell id="1comxYoYeF5f1OaVWV9h-4" style="edgeStyle=none;rounded=0;orthogonalLoop=1;jettySize=auto;html=1;entryX=0;entryY=0.5;entryDx=0;entryDy=0;" parent="1" source="EIso7QuBOm43zt30TAGB-23" target="1comxYoYeF5f1OaVWV9h-1" edge="1">
          <mxGeometry relative="1" as="geometry">
            <mxPoint x="532.3645035252509" y="382.4679867068187" as="targetPoint" />
          </mxGeometry>
        </mxCell>
        <mxCell id="1comxYoYeF5f1OaVWV9h-6" value="&amp;lt;&amp;lt;includes&amp;gt;&amp;gt;" style="edgeLabel;html=1;align=center;verticalAlign=middle;resizable=0;points=[];" parent="1comxYoYeF5f1OaVWV9h-4" vertex="1" connectable="0">
          <mxGeometry x="-0.3426" y="-2" relative="1" as="geometry">
            <mxPoint x="21" y="-2" as="offset" />
          </mxGeometry>
        </mxCell>
        <mxCell id="EIso7QuBOm43zt30TAGB-23" value="crud-parents-accounts" style="ellipse;whiteSpace=wrap;html=1;" parent="1" vertex="1">
          <mxGeometry x="320" y="354" width="80" height="50" as="geometry" />
        </mxCell>
        <mxCell id="1comxYoYeF5f1OaVWV9h-1" value="login" style="ellipse;whiteSpace=wrap;html=1;" parent="1" vertex="1">
          <mxGeometry x="610" y="349" width="80" height="50" as="geometry" />
        </mxCell>
        <mxCell id="seTzrFUvo9Vho5NLYhx8-1" style="rounded=0;orthogonalLoop=1;jettySize=auto;html=1;entryX=0;entryY=0.5;entryDx=0;entryDy=0;exitX=1;exitY=0.5;exitDx=0;exitDy=0;" parent="1" source="EIso7QuBOm43zt30TAGB-6" target="seTzrFUvo9Vho5NLYhx8-5" edge="1">
          <mxGeometry relative="1" as="geometry">
            <mxPoint x="449.5068856048649" y="532.9134179136895" as="sourcePoint" />
          </mxGeometry>
        </mxCell>
        <mxCell id="seTzrFUvo9Vho5NLYhx8-2" value="&amp;lt;&amp;lt;includes&amp;gt;&amp;gt;" style="edgeLabel;html=1;align=center;verticalAlign=middle;resizable=0;points=[];" parent="seTzrFUvo9Vho5NLYhx8-1" vertex="1" connectable="0">
          <mxGeometry x="-0.3548" y="-2" relative="1" as="geometry">
            <mxPoint x="23" y="2" as="offset" />
          </mxGeometry>
        </mxCell>
        <mxCell id="seTzrFUvo9Vho5NLYhx8-3" style="edgeStyle=none;rounded=0;orthogonalLoop=1;jettySize=auto;html=1;entryX=0;entryY=0.5;entryDx=0;entryDy=0;exitX=1;exitY=0.5;exitDx=0;exitDy=0;" parent="1" source="EIso7QuBOm43zt30TAGB-7" target="seTzrFUvo9Vho5NLYhx8-5" edge="1">
          <mxGeometry relative="1" as="geometry">
            <mxPoint x="449.0125319589331" y="584.4793586850565" as="sourcePoint" />
            <mxPoint x="532.3645035252509" y="562.4679867068187" as="targetPoint" />
          </mxGeometry>
        </mxCell>
        <mxCell id="seTzrFUvo9Vho5NLYhx8-4" value="&amp;lt;&amp;lt;includes&amp;gt;&amp;gt;" style="edgeLabel;html=1;align=center;verticalAlign=middle;resizable=0;points=[];" parent="seTzrFUvo9Vho5NLYhx8-3" vertex="1" connectable="0">
          <mxGeometry x="-0.3426" y="-2" relative="1" as="geometry">
            <mxPoint x="21" y="-2" as="offset" />
          </mxGeometry>
        </mxCell>
        <mxCell id="seTzrFUvo9Vho5NLYhx8-5" value="login" style="ellipse;whiteSpace=wrap;html=1;" parent="1" vertex="1">
          <mxGeometry x="610" y="564" width="80" height="50" as="geometry" />
        </mxCell>
        <mxCell id="RVFzBMsblsfGYS1RLQrb-3" style="rounded=0;orthogonalLoop=1;jettySize=auto;html=1;entryX=-0.006;entryY=0.693;entryDx=0;entryDy=0;entryPerimeter=0;" edge="1" parent="1" source="RVFzBMsblsfGYS1RLQrb-1" target="1comxYoYeF5f1OaVWV9h-1">
          <mxGeometry relative="1" as="geometry" />
        </mxCell>
        <mxCell id="RVFzBMsblsfGYS1RLQrb-4" value="&amp;lt;&amp;lt;includes&amp;gt;&amp;gt;" style="edgeLabel;html=1;align=center;verticalAlign=middle;resizable=0;points=[];" vertex="1" connectable="0" parent="RVFzBMsblsfGYS1RLQrb-3">
          <mxGeometry x="-0.1364" y="1" relative="1" as="geometry">
            <mxPoint x="-1" as="offset" />
          </mxGeometry>
        </mxCell>
        <mxCell id="RVFzBMsblsfGYS1RLQrb-1" value="crud-parents-accounts" style="ellipse;whiteSpace=wrap;html=1;" vertex="1" parent="1">
          <mxGeometry x="320" y="420" width="80" height="50" as="geometry" />
        </mxCell>
      </root>
    </mxGraphModel>
  </diagram>
  <diagram id="JdSC_p2KRvfNmoCe5MqN" name="diagram de séquence">
    <mxGraphModel dx="2068" dy="876" grid="1" gridSize="10" guides="1" tooltips="1" connect="1" arrows="1" fold="1" page="1" pageScale="1" pageWidth="827" pageHeight="1169" math="0" shadow="0">
      <root>
        <mxCell id="0" />
        <mxCell id="1" parent="0" />
        <mxCell id="w9ImaH_0EDq1q4U_U1Nc-4" value="Director" style="shape=umlLifeline;participant=umlActor;perimeter=lifelinePerimeter;whiteSpace=wrap;html=1;container=1;collapsible=0;recursiveResize=0;verticalAlign=top;spacingTop=36;outlineConnect=0;size=40;" parent="1" vertex="1">
          <mxGeometry x="150" y="120" width="30" height="1240" as="geometry" />
        </mxCell>
        <mxCell id="w9ImaH_0EDq1q4U_U1Nc-5" value="MyKinder" style="shape=umlLifeline;perimeter=lifelinePerimeter;whiteSpace=wrap;html=1;container=1;collapsible=0;recursiveResize=0;outlineConnect=0;" parent="1" vertex="1">
          <mxGeometry x="364" y="120" width="100" height="1240" as="geometry" />
        </mxCell>
        <mxCell id="w9ImaH_0EDq1q4U_U1Nc-6" value="Database" style="shape=umlLifeline;perimeter=lifelinePerimeter;whiteSpace=wrap;html=1;container=1;collapsible=0;recursiveResize=0;outlineConnect=0;" parent="1" vertex="1">
          <mxGeometry x="614" y="120" width="100" height="1240" as="geometry" />
        </mxCell>
        <mxCell id="w9ImaH_0EDq1q4U_U1Nc-7" value="" style="edgeStyle=none;orthogonalLoop=1;jettySize=auto;html=1;rounded=0;" parent="1" edge="1">
          <mxGeometry width="100" relative="1" as="geometry">
            <mxPoint x="164.590909090909" y="225" as="sourcePoint" />
            <mxPoint x="413.5" y="225" as="targetPoint" />
            <Array as="points" />
          </mxGeometry>
        </mxCell>
        <mxCell id="w9ImaH_0EDq1q4U_U1Nc-8" value="" style="edgeStyle=none;orthogonalLoop=1;jettySize=auto;html=1;rounded=0;" parent="1" edge="1">
          <mxGeometry width="100" relative="1" as="geometry">
            <mxPoint x="414.590909090909" y="255" as="sourcePoint" />
            <mxPoint x="663.5" y="255" as="targetPoint" />
            <Array as="points" />
          </mxGeometry>
        </mxCell>
        <mxCell id="w9ImaH_0EDq1q4U_U1Nc-9" value="alternative" style="shape=umlFrame;whiteSpace=wrap;html=1;" parent="1" vertex="1">
          <mxGeometry x="119" y="269" width="590" height="171" as="geometry" />
        </mxCell>
        <mxCell id="w9ImaH_0EDq1q4U_U1Nc-11" value="Login" style="text;html=1;align=center;verticalAlign=middle;resizable=0;points=[];autosize=1;strokeColor=none;fillColor=none;" parent="1" vertex="1">
          <mxGeometry x="275" y="200" width="50" height="30" as="geometry" />
        </mxCell>
        <mxCell id="w9ImaH_0EDq1q4U_U1Nc-12" value="Check-informations" style="text;html=1;align=center;verticalAlign=middle;resizable=0;points=[];autosize=1;strokeColor=none;fillColor=none;" parent="1" vertex="1">
          <mxGeometry x="490" y="230" width="130" height="30" as="geometry" />
        </mxCell>
        <mxCell id="w9ImaH_0EDq1q4U_U1Nc-13" value="" style="edgeStyle=none;orthogonalLoop=1;jettySize=auto;html=1;rounded=0;" parent="1" edge="1">
          <mxGeometry width="100" relative="1" as="geometry">
            <mxPoint x="413.5" y="330" as="sourcePoint" />
            <mxPoint x="164.590909090909" y="330" as="targetPoint" />
            <Array as="points">
              <mxPoint x="300" y="330" />
            </Array>
          </mxGeometry>
        </mxCell>
        <mxCell id="w9ImaH_0EDq1q4U_U1Nc-14" value="Login-success" style="text;html=1;align=center;verticalAlign=middle;resizable=0;points=[];autosize=1;strokeColor=none;fillColor=none;" parent="1" vertex="1">
          <mxGeometry x="250" y="309" width="100" height="30" as="geometry" />
        </mxCell>
        <mxCell id="w9ImaH_0EDq1q4U_U1Nc-16" value="data-matched" style="text;html=1;align=center;verticalAlign=middle;resizable=0;points=[];autosize=1;strokeColor=none;fillColor=none;" parent="1" vertex="1">
          <mxGeometry x="500" y="270" width="100" height="30" as="geometry" />
        </mxCell>
        <mxCell id="w9ImaH_0EDq1q4U_U1Nc-18" value="" style="endArrow=block;dashed=1;endFill=0;endSize=12;html=1;rounded=0;" parent="1" edge="1">
          <mxGeometry width="160" relative="1" as="geometry">
            <mxPoint x="663.5" y="295" as="sourcePoint" />
            <mxPoint x="413.590909090909" y="295" as="targetPoint" />
          </mxGeometry>
        </mxCell>
        <mxCell id="xJGyRs7037U_Q7WiDZsv-5" value="" style="edgeStyle=none;orthogonalLoop=1;jettySize=auto;html=1;rounded=0;" parent="1" edge="1">
          <mxGeometry width="100" relative="1" as="geometry">
            <mxPoint x="413.5" y="400" as="sourcePoint" />
            <mxPoint x="164.590909090909" y="400" as="targetPoint" />
            <Array as="points">
              <mxPoint x="300" y="400" />
            </Array>
          </mxGeometry>
        </mxCell>
        <mxCell id="xJGyRs7037U_Q7WiDZsv-6" value="Login-failed" style="text;html=1;align=center;verticalAlign=middle;resizable=0;points=[];autosize=1;strokeColor=none;fillColor=none;" parent="1" vertex="1">
          <mxGeometry x="255" y="378" width="90" height="30" as="geometry" />
        </mxCell>
        <mxCell id="xJGyRs7037U_Q7WiDZsv-7" value="data-unmatched" style="text;html=1;align=center;verticalAlign=middle;resizable=0;points=[];autosize=1;strokeColor=none;fillColor=none;" parent="1" vertex="1">
          <mxGeometry x="495" y="340" width="110" height="30" as="geometry" />
        </mxCell>
        <mxCell id="xJGyRs7037U_Q7WiDZsv-8" value="" style="endArrow=block;dashed=1;endFill=0;endSize=12;html=1;rounded=0;" parent="1" edge="1">
          <mxGeometry width="160" relative="1" as="geometry">
            <mxPoint x="663.5" y="365" as="sourcePoint" />
            <mxPoint x="413.590909090909" y="365" as="targetPoint" />
          </mxGeometry>
        </mxCell>
        <mxCell id="ryy228PNY-A_zexfAmW7-1" value="" style="edgeStyle=none;orthogonalLoop=1;jettySize=auto;html=1;rounded=0;" parent="1" edge="1">
          <mxGeometry width="100" relative="1" as="geometry">
            <mxPoint x="164.590909090909" y="505" as="sourcePoint" />
            <mxPoint x="413.5" y="505" as="targetPoint" />
            <Array as="points" />
          </mxGeometry>
        </mxCell>
        <mxCell id="ryy228PNY-A_zexfAmW7-2" value="" style="edgeStyle=none;orthogonalLoop=1;jettySize=auto;html=1;rounded=0;" parent="1" edge="1">
          <mxGeometry width="100" relative="1" as="geometry">
            <mxPoint x="414.590909090909" y="525" as="sourcePoint" />
            <mxPoint x="663.5" y="525" as="targetPoint" />
            <Array as="points" />
          </mxGeometry>
        </mxCell>
        <mxCell id="ryy228PNY-A_zexfAmW7-3" value="alternative" style="shape=umlFrame;whiteSpace=wrap;html=1;" parent="1" vertex="1">
          <mxGeometry x="119" y="539" width="590" height="171" as="geometry" />
        </mxCell>
        <mxCell id="ryy228PNY-A_zexfAmW7-4" value="create-account" style="text;html=1;align=center;verticalAlign=middle;resizable=0;points=[];autosize=1;strokeColor=none;fillColor=none;" parent="1" vertex="1">
          <mxGeometry x="250" y="479" width="100" height="30" as="geometry" />
        </mxCell>
        <mxCell id="ryy228PNY-A_zexfAmW7-5" value="check-data" style="text;html=1;align=center;verticalAlign=middle;resizable=0;points=[];autosize=1;strokeColor=none;fillColor=none;" parent="1" vertex="1">
          <mxGeometry x="515" y="500" width="80" height="30" as="geometry" />
        </mxCell>
        <mxCell id="ryy228PNY-A_zexfAmW7-6" value="" style="edgeStyle=none;orthogonalLoop=1;jettySize=auto;html=1;rounded=0;" parent="1" edge="1">
          <mxGeometry width="100" relative="1" as="geometry">
            <mxPoint x="413.5" y="600" as="sourcePoint" />
            <mxPoint x="164.590909090909" y="600" as="targetPoint" />
            <Array as="points">
              <mxPoint x="300" y="600" />
            </Array>
          </mxGeometry>
        </mxCell>
        <mxCell id="ryy228PNY-A_zexfAmW7-7" value="account-created" style="text;html=1;align=center;verticalAlign=middle;resizable=0;points=[];autosize=1;strokeColor=none;fillColor=none;" parent="1" vertex="1">
          <mxGeometry x="245" y="579" width="110" height="30" as="geometry" />
        </mxCell>
        <mxCell id="ryy228PNY-A_zexfAmW7-8" value="data-available" style="text;html=1;align=center;verticalAlign=middle;resizable=0;points=[];autosize=1;strokeColor=none;fillColor=none;" parent="1" vertex="1">
          <mxGeometry x="500" y="540" width="100" height="30" as="geometry" />
        </mxCell>
        <mxCell id="ryy228PNY-A_zexfAmW7-9" value="" style="endArrow=block;dashed=1;endFill=0;endSize=12;html=1;rounded=0;" parent="1" edge="1">
          <mxGeometry width="160" relative="1" as="geometry">
            <mxPoint x="663.5" y="565" as="sourcePoint" />
            <mxPoint x="413.590909090909" y="565" as="targetPoint" />
          </mxGeometry>
        </mxCell>
        <mxCell id="ryy228PNY-A_zexfAmW7-10" value="" style="edgeStyle=none;orthogonalLoop=1;jettySize=auto;html=1;rounded=0;" parent="1" edge="1">
          <mxGeometry width="100" relative="1" as="geometry">
            <mxPoint x="413.5" y="670" as="sourcePoint" />
            <mxPoint x="164.590909090909" y="670" as="targetPoint" />
            <Array as="points">
              <mxPoint x="300" y="670" />
            </Array>
          </mxGeometry>
        </mxCell>
        <mxCell id="ryy228PNY-A_zexfAmW7-11" value="creation-failed" style="text;html=1;align=center;verticalAlign=middle;resizable=0;points=[];autosize=1;strokeColor=none;fillColor=none;" parent="1" vertex="1">
          <mxGeometry x="250" y="648" width="100" height="30" as="geometry" />
        </mxCell>
        <mxCell id="ryy228PNY-A_zexfAmW7-12" value="data-unavailable" style="text;html=1;align=center;verticalAlign=middle;resizable=0;points=[];autosize=1;strokeColor=none;fillColor=none;" parent="1" vertex="1">
          <mxGeometry x="495" y="610" width="110" height="30" as="geometry" />
        </mxCell>
        <mxCell id="ryy228PNY-A_zexfAmW7-13" value="" style="endArrow=block;dashed=1;endFill=0;endSize=12;html=1;rounded=0;" parent="1" edge="1">
          <mxGeometry width="160" relative="1" as="geometry">
            <mxPoint x="663.5" y="635" as="sourcePoint" />
            <mxPoint x="413.590909090909" y="635" as="targetPoint" />
          </mxGeometry>
        </mxCell>
        <mxCell id="ryy228PNY-A_zexfAmW7-14" value="" style="edgeStyle=none;orthogonalLoop=1;jettySize=auto;html=1;rounded=0;" parent="1" edge="1">
          <mxGeometry width="100" relative="1" as="geometry">
            <mxPoint x="164.590909090909" y="935" as="sourcePoint" />
            <mxPoint x="413.5" y="935" as="targetPoint" />
            <Array as="points" />
          </mxGeometry>
        </mxCell>
        <mxCell id="ryy228PNY-A_zexfAmW7-15" value="" style="edgeStyle=none;orthogonalLoop=1;jettySize=auto;html=1;rounded=0;" parent="1" edge="1">
          <mxGeometry width="100" relative="1" as="geometry">
            <mxPoint x="414.590909090909" y="955" as="sourcePoint" />
            <mxPoint x="663.5" y="955" as="targetPoint" />
            <Array as="points" />
          </mxGeometry>
        </mxCell>
        <mxCell id="ryy228PNY-A_zexfAmW7-16" value="alternative" style="shape=umlFrame;whiteSpace=wrap;html=1;" parent="1" vertex="1">
          <mxGeometry x="119" y="969" width="590" height="171" as="geometry" />
        </mxCell>
        <mxCell id="ryy228PNY-A_zexfAmW7-17" value="update-account" style="text;html=1;align=center;verticalAlign=middle;resizable=0;points=[];autosize=1;strokeColor=none;fillColor=none;" parent="1" vertex="1">
          <mxGeometry x="245" y="909" width="110" height="30" as="geometry" />
        </mxCell>
        <mxCell id="ryy228PNY-A_zexfAmW7-18" value="check-data" style="text;html=1;align=center;verticalAlign=middle;resizable=0;points=[];autosize=1;strokeColor=none;fillColor=none;" parent="1" vertex="1">
          <mxGeometry x="515" y="930" width="80" height="30" as="geometry" />
        </mxCell>
        <mxCell id="ryy228PNY-A_zexfAmW7-19" value="" style="edgeStyle=none;orthogonalLoop=1;jettySize=auto;html=1;rounded=0;" parent="1" edge="1">
          <mxGeometry width="100" relative="1" as="geometry">
            <mxPoint x="413.5" y="1030" as="sourcePoint" />
            <mxPoint x="164.590909090909" y="1030" as="targetPoint" />
            <Array as="points">
              <mxPoint x="300" y="1030" />
            </Array>
          </mxGeometry>
        </mxCell>
        <mxCell id="ryy228PNY-A_zexfAmW7-20" value="account-updated" style="text;html=1;align=center;verticalAlign=middle;resizable=0;points=[];autosize=1;strokeColor=none;fillColor=none;" parent="1" vertex="1">
          <mxGeometry x="245" y="1009" width="110" height="30" as="geometry" />
        </mxCell>
        <mxCell id="ryy228PNY-A_zexfAmW7-21" value="data-available" style="text;html=1;align=center;verticalAlign=middle;resizable=0;points=[];autosize=1;strokeColor=none;fillColor=none;" parent="1" vertex="1">
          <mxGeometry x="500" y="970" width="100" height="30" as="geometry" />
        </mxCell>
        <mxCell id="ryy228PNY-A_zexfAmW7-22" value="" style="endArrow=block;dashed=1;endFill=0;endSize=12;html=1;rounded=0;" parent="1" edge="1">
          <mxGeometry width="160" relative="1" as="geometry">
            <mxPoint x="663.5" y="995" as="sourcePoint" />
            <mxPoint x="413.590909090909" y="995" as="targetPoint" />
          </mxGeometry>
        </mxCell>
        <mxCell id="ryy228PNY-A_zexfAmW7-23" value="" style="edgeStyle=none;orthogonalLoop=1;jettySize=auto;html=1;rounded=0;" parent="1" edge="1">
          <mxGeometry width="100" relative="1" as="geometry">
            <mxPoint x="413.5" y="1100" as="sourcePoint" />
            <mxPoint x="164.590909090909" y="1100" as="targetPoint" />
            <Array as="points">
              <mxPoint x="300" y="1100" />
            </Array>
          </mxGeometry>
        </mxCell>
        <mxCell id="ryy228PNY-A_zexfAmW7-24" value="update-failed" style="text;html=1;align=center;verticalAlign=middle;resizable=0;points=[];autosize=1;strokeColor=none;fillColor=none;" parent="1" vertex="1">
          <mxGeometry x="255" y="1078" width="90" height="30" as="geometry" />
        </mxCell>
        <mxCell id="ryy228PNY-A_zexfAmW7-25" value="data-unavailable" style="text;html=1;align=center;verticalAlign=middle;resizable=0;points=[];autosize=1;strokeColor=none;fillColor=none;" parent="1" vertex="1">
          <mxGeometry x="495" y="1040" width="110" height="30" as="geometry" />
        </mxCell>
        <mxCell id="ryy228PNY-A_zexfAmW7-26" value="" style="endArrow=block;dashed=1;endFill=0;endSize=12;html=1;rounded=0;" parent="1" edge="1">
          <mxGeometry width="160" relative="1" as="geometry">
            <mxPoint x="663.5" y="1065" as="sourcePoint" />
            <mxPoint x="413.590909090909" y="1065" as="targetPoint" />
          </mxGeometry>
        </mxCell>
        <mxCell id="ryy228PNY-A_zexfAmW7-27" value="" style="edgeStyle=none;orthogonalLoop=1;jettySize=auto;html=1;rounded=0;" parent="1" edge="1">
          <mxGeometry width="100" relative="1" as="geometry">
            <mxPoint x="164.590909090909" y="1205" as="sourcePoint" />
            <mxPoint x="413.5" y="1205" as="targetPoint" />
            <Array as="points" />
          </mxGeometry>
        </mxCell>
        <mxCell id="ryy228PNY-A_zexfAmW7-28" value="" style="edgeStyle=none;orthogonalLoop=1;jettySize=auto;html=1;rounded=0;" parent="1" edge="1">
          <mxGeometry width="100" relative="1" as="geometry">
            <mxPoint x="414.590909090909" y="1225" as="sourcePoint" />
            <mxPoint x="663.5" y="1225" as="targetPoint" />
            <Array as="points" />
          </mxGeometry>
        </mxCell>
        <mxCell id="ryy228PNY-A_zexfAmW7-30" value="delete-account" style="text;html=1;align=center;verticalAlign=middle;resizable=0;points=[];autosize=1;strokeColor=none;fillColor=none;" parent="1" vertex="1">
          <mxGeometry x="250" y="1179" width="100" height="30" as="geometry" />
        </mxCell>
        <mxCell id="ryy228PNY-A_zexfAmW7-31" value="send-request" style="text;html=1;align=center;verticalAlign=middle;resizable=0;points=[];autosize=1;strokeColor=none;fillColor=none;" parent="1" vertex="1">
          <mxGeometry x="510" y="1200" width="90" height="30" as="geometry" />
        </mxCell>
        <mxCell id="ryy228PNY-A_zexfAmW7-32" value="" style="edgeStyle=none;orthogonalLoop=1;jettySize=auto;html=1;rounded=0;" parent="1" edge="1">
          <mxGeometry width="100" relative="1" as="geometry">
            <mxPoint x="413.5" y="1300" as="sourcePoint" />
            <mxPoint x="164.590909090909" y="1300" as="targetPoint" />
            <Array as="points">
              <mxPoint x="300" y="1300" />
            </Array>
          </mxGeometry>
        </mxCell>
        <mxCell id="ryy228PNY-A_zexfAmW7-33" value="account-deleted" style="text;html=1;align=center;verticalAlign=middle;resizable=0;points=[];autosize=1;strokeColor=none;fillColor=none;" parent="1" vertex="1">
          <mxGeometry x="245" y="1278" width="110" height="30" as="geometry" />
        </mxCell>
        <mxCell id="ryy228PNY-A_zexfAmW7-34" value="request-accepted" style="text;html=1;align=center;verticalAlign=middle;resizable=0;points=[];autosize=1;strokeColor=none;fillColor=none;" parent="1" vertex="1">
          <mxGeometry x="490" y="1240" width="120" height="30" as="geometry" />
        </mxCell>
        <mxCell id="ryy228PNY-A_zexfAmW7-35" value="" style="endArrow=block;dashed=1;endFill=0;endSize=12;html=1;rounded=0;" parent="1" edge="1">
          <mxGeometry width="160" relative="1" as="geometry">
            <mxPoint x="663.5" y="1265" as="sourcePoint" />
            <mxPoint x="413.590909090909" y="1265" as="targetPoint" />
          </mxGeometry>
        </mxCell>
        <mxCell id="ryy228PNY-A_zexfAmW7-40" value="" style="edgeStyle=none;orthogonalLoop=1;jettySize=auto;html=1;rounded=0;" parent="1" edge="1">
          <mxGeometry width="100" relative="1" as="geometry">
            <mxPoint x="164.590909090909" y="775" as="sourcePoint" />
            <mxPoint x="413.5" y="775" as="targetPoint" />
            <Array as="points" />
          </mxGeometry>
        </mxCell>
        <mxCell id="ryy228PNY-A_zexfAmW7-41" value="" style="edgeStyle=none;orthogonalLoop=1;jettySize=auto;html=1;rounded=0;" parent="1" edge="1">
          <mxGeometry width="100" relative="1" as="geometry">
            <mxPoint x="414.590909090909" y="795" as="sourcePoint" />
            <mxPoint x="663.5" y="795" as="targetPoint" />
            <Array as="points" />
          </mxGeometry>
        </mxCell>
        <mxCell id="ryy228PNY-A_zexfAmW7-42" value="read-account" style="text;html=1;align=center;verticalAlign=middle;resizable=0;points=[];autosize=1;strokeColor=none;fillColor=none;" parent="1" vertex="1">
          <mxGeometry x="255" y="749" width="90" height="30" as="geometry" />
        </mxCell>
        <mxCell id="ryy228PNY-A_zexfAmW7-43" value="send-request" style="text;html=1;align=center;verticalAlign=middle;resizable=0;points=[];autosize=1;strokeColor=none;fillColor=none;" parent="1" vertex="1">
          <mxGeometry x="510" y="770" width="90" height="30" as="geometry" />
        </mxCell>
        <mxCell id="ryy228PNY-A_zexfAmW7-44" value="" style="edgeStyle=none;orthogonalLoop=1;jettySize=auto;html=1;rounded=0;" parent="1" edge="1">
          <mxGeometry width="100" relative="1" as="geometry">
            <mxPoint x="413.5" y="870" as="sourcePoint" />
            <mxPoint x="164.590909090909" y="870" as="targetPoint" />
            <Array as="points">
              <mxPoint x="300" y="870" />
            </Array>
          </mxGeometry>
        </mxCell>
        <mxCell id="ryy228PNY-A_zexfAmW7-45" value="account-readed" style="text;html=1;align=center;verticalAlign=middle;resizable=0;points=[];autosize=1;strokeColor=none;fillColor=none;" parent="1" vertex="1">
          <mxGeometry x="245" y="848" width="110" height="30" as="geometry" />
        </mxCell>
        <mxCell id="ryy228PNY-A_zexfAmW7-46" value="request-accepted" style="text;html=1;align=center;verticalAlign=middle;resizable=0;points=[];autosize=1;strokeColor=none;fillColor=none;" parent="1" vertex="1">
          <mxGeometry x="490" y="810" width="120" height="30" as="geometry" />
        </mxCell>
        <mxCell id="ryy228PNY-A_zexfAmW7-47" value="" style="endArrow=block;dashed=1;endFill=0;endSize=12;html=1;rounded=0;" parent="1" edge="1">
          <mxGeometry width="160" relative="1" as="geometry">
            <mxPoint x="663.5" y="835" as="sourcePoint" />
            <mxPoint x="413.590909090909" y="835" as="targetPoint" />
          </mxGeometry>
        </mxCell>
        <mxCell id="uDkcYCpj8m-pXQkvrsXB-1" value="alternative" style="shape=umlFrame;whiteSpace=wrap;html=1;" vertex="1" parent="1">
          <mxGeometry x="40" y="468" width="760" height="942" as="geometry" />
        </mxCell>
      </root>
    </mxGraphModel>
  </diagram>
</mxfile>
